<svg class="svg-icon" style="width: 1em;height: 1em;vertical-align: middle;fill: currentColor;overflow: hidden;" viewBox="0 0 1024 1024" version="1.1" xmlns="http://www.w3.org/2000/svg"><path d="M884.363636 0H139.636364a139.636364 139.636364 0 0 0-139.636364 139.636364v744.727272a139.636364 139.636364 0 0 0 139.636364 139.636364h744.727272a139.636364 139.636364 0 0 0 139.636364-139.636364V139.636364a139.636364 139.636364 0 0 0-139.636364-139.636364zM139.636364 93.090909h744.727272a46.545455 46.545455 0 0 1 46.545455 46.545455v744.727272a46.545455 46.545455 0 0 1-46.545455 46.545455H139.636364a46.545455 46.545455 0 0 1-46.545455-46.545455V139.636364a46.545455 46.545455 0 0 1 46.545455-46.545455z" fill="#008df0" /></svg>